<svg width="342" height="54" viewBox="0 0 342 54" fill="none" xmlns="http://www.w3.org/2000/svg">
<rect x="0.5" y="0.5" width="341" height="53" rx="13.5" fill="white"/>
<rect x="0.5" y="0.5" width="341" height="53" rx="13.5" stroke="black"/>
<path d="M84.7085 34.3247C83.4468 34.3247 82.3551 34.0402 81.4336 33.4712C80.512 32.9022 79.8008 32.0951 79.2998 31.0498C78.805 30.0046 78.5576 28.7614 78.5576 27.3203V27.3018C78.5576 25.8545 78.805 24.6082 79.2998 23.563C79.8008 22.5177 80.509 21.7106 81.4243 21.1416C82.3459 20.5726 83.4406 20.2881 84.7085 20.2881C85.7228 20.2881 86.6382 20.4891 87.4546 20.8911C88.271 21.2869 88.9359 21.8374 89.4492 22.5425C89.9626 23.2414 90.2718 24.0423 90.377 24.9453V25.0288H88.0298L88.0205 24.9731C87.903 24.4474 87.6896 23.9897 87.3804 23.6001C87.0773 23.2043 86.6969 22.8981 86.2393 22.6816C85.7816 22.4652 85.2713 22.3569 84.7085 22.3569C83.9478 22.3569 83.2891 22.5579 82.7324 22.96C82.1758 23.362 81.7459 23.931 81.4429 24.667C81.146 25.403 80.9976 26.2782 80.9976 27.2925V27.311C80.9976 28.3254 81.146 29.2036 81.4429 29.9458C81.7459 30.6818 82.1758 31.2508 82.7324 31.6528C83.2891 32.0549 83.9508 32.2559 84.7178 32.2559C85.2868 32.2559 85.797 32.1569 86.2485 31.959C86.7062 31.7611 87.0866 31.4797 87.3896 31.1147C87.6927 30.7498 87.903 30.32 88.0205 29.8252L88.0391 29.7695H90.3862L90.377 29.8438C90.2594 30.7344 89.9471 31.5168 89.4399 32.1909C88.9328 32.8589 88.2741 33.3815 87.4639 33.7588C86.6598 34.1361 85.7414 34.3247 84.7085 34.3247ZM97.103 34.2041C96.0949 34.2041 95.2259 33.9938 94.4961 33.5732C93.7725 33.1527 93.2127 32.5496 92.8169 31.7642C92.4272 30.9787 92.2324 30.0417 92.2324 28.9531V28.9346C92.2324 27.846 92.4303 26.9121 92.8262 26.1328C93.222 25.3473 93.7817 24.7443 94.5054 24.3237C95.2352 23.9032 96.1011 23.6929 97.103 23.6929C98.105 23.6929 98.9678 23.9032 99.6914 24.3237C100.421 24.7443 100.984 25.3473 101.38 26.1328C101.776 26.9121 101.974 27.846 101.974 28.9346V28.9531C101.974 30.0417 101.776 30.9787 101.38 31.7642C100.99 32.5496 100.431 33.1527 99.7007 33.5732C98.9771 33.9938 98.1112 34.2041 97.103 34.2041ZM97.103 32.3301C97.6349 32.3301 98.0864 32.1971 98.4575 31.9312C98.8286 31.6652 99.1131 31.2817 99.311 30.7808C99.509 30.2736 99.6079 29.6644 99.6079 28.9531V28.9346C99.6079 28.2233 99.509 27.6172 99.311 27.1162C99.1131 26.6152 98.8286 26.2318 98.4575 25.9658C98.0864 25.6937 97.6349 25.5576 97.103 25.5576C96.5711 25.5576 96.1196 25.6937 95.7485 25.9658C95.3774 26.2318 95.0898 26.6152 94.8857 27.1162C94.6878 27.6172 94.5889 28.2233 94.5889 28.9346V28.9531C94.5889 29.6644 94.6878 30.2736 94.8857 30.7808C95.0837 31.2817 95.3682 31.6652 95.7393 31.9312C96.1165 32.1971 96.5711 32.3301 97.103 32.3301ZM104.209 34V23.8877H106.52V25.437H106.668C106.915 24.8927 107.283 24.466 107.772 24.1567C108.261 23.8475 108.87 23.6929 109.6 23.6929C110.731 23.6929 111.594 24.0207 112.188 24.6763C112.788 25.3319 113.088 26.2596 113.088 27.4595V34H110.778V27.9883C110.778 27.209 110.611 26.6214 110.277 26.2256C109.949 25.8298 109.439 25.6318 108.746 25.6318C108.288 25.6318 107.893 25.7339 107.559 25.938C107.231 26.1421 106.974 26.4297 106.789 26.8008C106.609 27.1657 106.52 27.6017 106.52 28.1089V34H104.209ZM119.693 34.0649C118.543 34.0649 117.711 33.8516 117.198 33.4248C116.684 32.9919 116.428 32.2868 116.428 31.3096V25.6782H114.878V23.8877H116.428V21.4014H118.775V23.8877H120.89V25.6782H118.775V30.79C118.775 31.2972 118.88 31.6652 119.09 31.894C119.307 32.1167 119.653 32.228 120.129 32.228C120.29 32.228 120.423 32.2249 120.528 32.2188C120.64 32.2064 120.76 32.194 120.89 32.1816V33.9629C120.729 33.9876 120.547 34.0093 120.343 34.0278C120.139 34.0526 119.922 34.0649 119.693 34.0649ZM123.163 34V23.8877H125.473V34H123.163ZM124.323 22.2178C123.952 22.2178 123.63 22.0848 123.358 21.8188C123.092 21.5529 122.959 21.2344 122.959 20.8633C122.959 20.486 123.092 20.1675 123.358 19.9077C123.63 19.6418 123.952 19.5088 124.323 19.5088C124.706 19.5088 125.031 19.6418 125.297 19.9077C125.563 20.1675 125.696 20.486 125.696 20.8633C125.696 21.2344 125.563 21.5529 125.297 21.8188C125.031 22.0848 124.706 22.2178 124.323 22.2178ZM128.238 34V23.8877H130.548V25.437H130.696C130.944 24.8927 131.312 24.466 131.8 24.1567C132.289 23.8475 132.898 23.6929 133.628 23.6929C134.76 23.6929 135.623 24.0207 136.216 24.6763C136.816 25.3319 137.116 26.2596 137.116 27.4595V34H134.806V27.9883C134.806 27.209 134.639 26.6214 134.305 26.2256C133.977 25.8298 133.467 25.6318 132.774 25.6318C132.317 25.6318 131.921 25.7339 131.587 25.938C131.259 26.1421 131.002 26.4297 130.817 26.8008C130.638 27.1657 130.548 27.6017 130.548 28.1089V34H128.238ZM143.128 34.2041C142.373 34.2041 141.739 34.0588 141.226 33.7681C140.713 33.4712 140.326 33.0413 140.066 32.4785C139.807 31.9095 139.677 31.2261 139.677 30.4282V23.8877H141.978V29.9087C141.978 30.6818 142.132 31.2663 142.441 31.6621C142.757 32.0579 143.264 32.2559 143.963 32.2559C144.328 32.2559 144.653 32.2002 144.937 32.0889C145.222 31.9714 145.46 31.8044 145.651 31.5879C145.849 31.3714 145.998 31.1117 146.097 30.8086C146.196 30.5055 146.245 30.1623 146.245 29.7788V23.8877H148.546V34H146.245V32.46H146.097C145.936 32.8187 145.716 33.131 145.438 33.397C145.16 33.6567 144.826 33.8577 144.436 34C144.053 34.1361 143.617 34.2041 143.128 34.2041ZM155.625 34.2041C154.623 34.2041 153.76 33.9907 153.036 33.564C152.319 33.1372 151.765 32.5342 151.375 31.7549C150.986 30.9694 150.791 30.0417 150.791 28.9717V28.9624C150.791 27.8986 150.983 26.974 151.366 26.1885C151.756 25.3968 152.306 24.7845 153.018 24.3516C153.729 23.9124 154.561 23.6929 155.513 23.6929C156.478 23.6929 157.307 23.9032 158 24.3237C158.698 24.7443 159.233 25.335 159.604 26.0957C159.982 26.8564 160.17 27.744 160.17 28.7583V29.519H151.951V27.979H159.048L157.944 29.4263V28.5078C157.944 27.8337 157.842 27.277 157.638 26.8379C157.434 26.3926 157.152 26.0586 156.793 25.8359C156.435 25.6133 156.017 25.502 155.541 25.502C155.071 25.502 154.65 25.6164 154.279 25.8452C153.914 26.0741 153.624 26.4142 153.407 26.8657C153.197 27.311 153.092 27.8584 153.092 28.5078V29.4263C153.092 30.0509 153.197 30.5859 153.407 31.0312C153.618 31.4704 153.914 31.8075 154.298 32.0425C154.688 32.2775 155.145 32.395 155.671 32.395C156.085 32.395 156.441 32.3363 156.738 32.2188C157.035 32.0951 157.276 31.9466 157.461 31.7734C157.653 31.6003 157.783 31.4364 157.851 31.2817L157.888 31.2075H160.068L160.05 31.3003C159.969 31.6281 159.821 31.9621 159.604 32.3022C159.394 32.6424 159.107 32.9578 158.742 33.2485C158.383 33.533 157.944 33.765 157.424 33.9443C156.905 34.1175 156.305 34.2041 155.625 34.2041ZM169.309 34L166.562 23.8877H168.882L170.561 31.5044H170.719L172.667 23.8877H174.866L176.823 31.5044H176.972L178.651 23.8877H180.942L178.196 34H175.784L173.808 26.6616H173.66L171.693 34H169.309ZM182.891 34V23.8877H185.201V34H182.891ZM184.05 22.2178C183.679 22.2178 183.358 22.0848 183.085 21.8188C182.819 21.5529 182.687 21.2344 182.687 20.8633C182.687 20.486 182.819 20.1675 183.085 19.9077C183.358 19.6418 183.679 19.5088 184.05 19.5088C184.434 19.5088 184.758 19.6418 185.024 19.9077C185.29 20.1675 185.423 20.486 185.423 20.8633C185.423 21.2344 185.29 21.5529 185.024 21.8188C184.758 22.0848 184.434 22.2178 184.05 22.2178ZM191.927 34.0649C190.776 34.0649 189.944 33.8516 189.431 33.4248C188.918 32.9919 188.661 32.2868 188.661 31.3096V25.6782H187.112V23.8877H188.661V21.4014H191.008V23.8877H193.124V25.6782H191.008V30.79C191.008 31.2972 191.113 31.6652 191.324 31.894C191.54 32.1167 191.887 32.228 192.363 32.228C192.524 32.228 192.657 32.2249 192.762 32.2188C192.873 32.2064 192.994 32.194 193.124 32.1816V33.9629C192.963 33.9876 192.78 34.0093 192.576 34.0278C192.372 34.0526 192.156 34.0649 191.927 34.0649ZM195.461 34V20.0005H197.771V25.4463H197.92C198.161 24.902 198.526 24.4753 199.015 24.166C199.509 23.8506 200.122 23.6929 200.852 23.6929C201.606 23.6929 202.24 23.8413 202.753 24.1382C203.273 24.4351 203.669 24.8649 203.941 25.4277C204.213 25.9906 204.349 26.674 204.349 27.478V34H202.039V28.0068C202.039 27.2214 201.872 26.6307 201.538 26.2349C201.204 25.8328 200.691 25.6318 199.998 25.6318C199.54 25.6318 199.145 25.7339 198.811 25.938C198.477 26.1421 198.22 26.4297 198.041 26.8008C197.861 27.1657 197.771 27.6017 197.771 28.1089V34H195.461ZM211.214 34L215.974 20.6128H217.95V23.0898H217.245L213.719 34H211.214ZM213.608 30.5396L214.239 28.6934H220.371L221.002 30.5396H213.608ZM220.909 34L217.393 23.0898V20.6128H218.664L223.423 34H220.909ZM225.409 37.3584V23.8877H227.719V25.4927H227.867C228.053 25.1154 228.294 24.7969 228.591 24.5371C228.894 24.2773 229.243 24.0763 229.639 23.9341C230.035 23.7918 230.471 23.7207 230.947 23.7207C231.795 23.7207 232.528 23.9341 233.146 24.3608C233.771 24.7876 234.253 25.3906 234.593 26.1699C234.933 26.943 235.104 27.8646 235.104 28.9346V28.9531C235.104 30.0293 234.933 30.957 234.593 31.7363C234.259 32.5156 233.78 33.1156 233.155 33.5361C232.537 33.9567 231.801 34.167 230.947 34.167C230.483 34.167 230.05 34.0959 229.648 33.9536C229.246 33.8052 228.894 33.598 228.591 33.332C228.288 33.0661 228.047 32.7507 227.867 32.3857H227.719V37.3584H225.409ZM230.224 32.228C230.749 32.228 231.201 32.0981 231.578 31.8384C231.955 31.5724 232.243 31.1951 232.441 30.7065C232.645 30.2118 232.747 29.6273 232.747 28.9531V28.9346C232.747 28.2542 232.645 27.6698 232.441 27.1812C232.243 26.6925 231.955 26.3184 231.578 26.0586C231.201 25.7988 230.749 25.6689 230.224 25.6689C229.71 25.6689 229.262 25.8019 228.878 26.0679C228.495 26.3276 228.201 26.7018 227.997 27.1904C227.793 27.6729 227.691 28.2542 227.691 28.9346V28.9531C227.691 29.6273 227.793 30.2087 227.997 30.6973C228.207 31.1859 228.501 31.5632 228.878 31.8291C229.262 32.0951 229.71 32.228 230.224 32.228ZM237.358 37.3584V23.8877H239.668V25.4927H239.816C240.002 25.1154 240.243 24.7969 240.54 24.5371C240.843 24.2773 241.193 24.0763 241.588 23.9341C241.984 23.7918 242.42 23.7207 242.896 23.7207C243.744 23.7207 244.477 23.9341 245.095 24.3608C245.72 24.7876 246.202 25.3906 246.542 26.1699C246.883 26.943 247.053 27.8646 247.053 28.9346V28.9531C247.053 30.0293 246.883 30.957 246.542 31.7363C246.208 32.5156 245.729 33.1156 245.104 33.5361C244.486 33.9567 243.75 34.167 242.896 34.167C242.433 34.167 242 34.0959 241.598 33.9536C241.196 33.8052 240.843 33.598 240.54 33.332C240.237 33.0661 239.996 32.7507 239.816 32.3857H239.668V37.3584H237.358ZM242.173 32.228C242.699 32.228 243.15 32.0981 243.527 31.8384C243.905 31.5724 244.192 31.1951 244.39 30.7065C244.594 30.2118 244.696 29.6273 244.696 28.9531V28.9346C244.696 28.2542 244.594 27.6698 244.39 27.1812C244.192 26.6925 243.905 26.3184 243.527 26.0586C243.15 25.7988 242.699 25.6689 242.173 25.6689C241.66 25.6689 241.211 25.8019 240.828 26.0679C240.444 26.3276 240.15 26.7018 239.946 27.1904C239.742 27.6729 239.64 28.2542 239.64 28.9346V28.9531C239.64 29.6273 239.742 30.2087 239.946 30.6973C240.157 31.1859 240.45 31.5632 240.828 31.8291C241.211 32.0951 241.66 32.228 242.173 32.228ZM249.4 34V20.0005H251.71V34H249.4ZM258.881 34.2041C257.879 34.2041 257.017 33.9907 256.293 33.564C255.576 33.1372 255.022 32.5342 254.632 31.7549C254.243 30.9694 254.048 30.0417 254.048 28.9717V28.9624C254.048 27.8986 254.24 26.974 254.623 26.1885C255.013 25.3968 255.563 24.7845 256.274 24.3516C256.986 23.9124 257.818 23.6929 258.77 23.6929C259.735 23.6929 260.564 23.9032 261.256 24.3237C261.955 24.7443 262.49 25.335 262.861 26.0957C263.239 26.8564 263.427 27.744 263.427 28.7583V29.519H255.208V27.979H262.305L261.201 29.4263V28.5078C261.201 27.8337 261.099 27.277 260.895 26.8379C260.69 26.3926 260.409 26.0586 260.05 25.8359C259.692 25.6133 259.274 25.502 258.798 25.502C258.328 25.502 257.907 25.6164 257.536 25.8452C257.171 26.0741 256.881 26.4142 256.664 26.8657C256.454 27.311 256.349 27.8584 256.349 28.5078V29.4263C256.349 30.0509 256.454 30.5859 256.664 31.0312C256.874 31.4704 257.171 31.8075 257.555 32.0425C257.944 32.2775 258.402 32.395 258.928 32.395C259.342 32.395 259.698 32.3363 259.995 32.2188C260.292 32.0951 260.533 31.9466 260.718 31.7734C260.91 31.6003 261.04 31.4364 261.108 31.2817L261.145 31.2075H263.325L263.307 31.3003C263.226 31.6281 263.078 31.9621 262.861 32.3022C262.651 32.6424 262.363 32.9578 261.999 33.2485C261.64 33.533 261.201 33.765 260.681 33.9443C260.162 34.1175 259.562 34.2041 258.881 34.2041Z" fill="black"/>
<path d="M27.1133 21.7788C27.2923 21.7788 27.5975 21.8073 28.0288 21.8643C28.4601 21.9212 28.9321 22.084 29.4448 22.3525C29.9657 22.613 30.4377 23.0483 30.8608 23.6587C30.8364 23.6831 30.7184 23.7726 30.5068 23.9272C30.2952 24.0737 30.0592 24.2935 29.7988 24.5864C29.5384 24.8713 29.3105 25.2375 29.1152 25.6851C28.9199 26.1245 28.8223 26.6494 28.8223 27.2598C28.8223 27.9596 28.9443 28.5537 29.1885 29.042C29.4408 29.5303 29.7297 29.925 30.0552 30.2261C30.3888 30.519 30.6818 30.7347 30.9341 30.873C31.1945 31.0114 31.3328 31.0846 31.3491 31.0928C31.341 31.1253 31.2352 31.4142 31.0317 31.9595C30.8364 32.5047 30.5109 33.111 30.0552 33.7783C29.6564 34.3561 29.2251 34.8892 28.7612 35.3774C28.3055 35.8657 27.7562 36.1099 27.1133 36.1099C26.682 36.1099 26.328 36.0488 26.0513 35.9268C25.7746 35.7965 25.4897 35.6704 25.1968 35.5483C24.9038 35.4181 24.5091 35.353 24.0127 35.353C23.5326 35.353 23.1297 35.4181 22.8042 35.5483C22.4868 35.6785 22.1816 35.8088 21.8887 35.939C21.6038 36.0692 21.2661 36.1343 20.8755 36.1343C20.2814 36.1343 19.7606 35.8983 19.313 35.4263C18.8654 34.9543 18.4056 34.3887 17.9336 33.7295C17.3883 32.9482 16.9204 31.9961 16.5298 30.873C16.1473 29.7419 15.9561 28.6025 15.9561 27.4551C15.9561 26.2262 16.188 25.1968 16.6519 24.3667C17.1157 23.5285 17.7098 22.8978 18.4341 22.4746C19.1665 22.0433 19.9233 21.8276 20.7046 21.8276C21.1196 21.8276 21.5103 21.8968 21.8765 22.0352C22.2427 22.1654 22.5845 22.2996 22.9019 22.438C23.2274 22.5763 23.5203 22.6455 23.7808 22.6455C24.033 22.6455 24.326 22.5723 24.6597 22.4258C24.9933 22.2793 25.3677 22.1369 25.7827 21.9985C26.1978 21.8521 26.6413 21.7788 27.1133 21.7788ZM26.4419 20.2285C26.1245 20.611 25.7257 20.9325 25.2456 21.1929C24.7655 21.4451 24.3097 21.5713 23.8784 21.5713C23.7889 21.5713 23.7035 21.5632 23.6221 21.5469C23.6139 21.5225 23.6058 21.4777 23.5977 21.4126C23.5895 21.3475 23.5854 21.2783 23.5854 21.2051C23.5854 20.7168 23.6912 20.2448 23.9028 19.7891C24.1144 19.3252 24.3545 18.9427 24.623 18.6416C24.9648 18.2347 25.3962 17.897 25.917 17.6284C26.4378 17.3599 26.9342 17.2174 27.4062 17.2012C27.4307 17.307 27.4429 17.4331 27.4429 17.5796C27.4429 18.0679 27.3493 18.5439 27.1621 19.0078C26.9749 19.4635 26.7349 19.8704 26.4419 20.2285Z" fill="black"/>
</svg>
